<svg overflow="hidden" xml:space="preserve" xmlns:xlink="http://www.w3.org/1999/xlink" xmlns="http://www.w3.org/2000/svg" height="169" width="201"><defs><clipPath id="clip0"><rect height="169" width="201" y="412" x="630"></rect></clipPath></defs><g transform="translate(-630 -412)" clip-path="url(#clip0)"><path transform="matrix(1.18935 0 0 1 630 412)" fill="#E4EFF8" d="M73.9565 145.235 105.644 145.235C108.57 145.235 110.925 147.59 110.925 150.515L110.925 155.797C110.925 158.723 108.57 161.079 105.644 161.079L73.9565 161.079C71.0306 161.079 68.6752 158.723 68.6752 155.797L68.6752 150.515C68.6752 147.59 71.0306 145.235 73.9565 145.235Z"></path><path transform="matrix(1.18935 0 0 1 630 412)" fill="#F8F8F8" d="M79.2377 145.235C76.3119 145.235 73.9565 147.59 73.9565 150.515L73.9565 155.797C73.9565 158.723 76.3119 161.079 79.2377 161.079L73.9565 161.079C71.0306 161.079 68.6752 158.723 68.6752 155.797L68.6752 150.515C68.6752 147.59 71.0306 145.235 73.9565 145.235Z"></path><path transform="matrix(1.18935 0 0 1 630 412)" fill="#C4DCF0" d="M100.363 145.235C103.288 145.235 105.644 147.59 105.644 150.515L105.644 155.797C105.644 158.723 103.288 161.079 100.363 161.079L105.644 161.079C108.57 161.079 110.925 158.723 110.925 155.797L110.925 150.515C110.925 147.59 108.57 145.235 105.644 145.235Z"></path><path transform="matrix(1.18935 0 0 1 630 412)" fill="#549AD4" d="M76.5971 134.672 103.003 134.672 103.003 145.235 76.5971 145.235Z"></path><path transform="matrix(1.18935 0 0 1 630 412)" fill="#E4EFF8" d="M55.472 7.9219 124.128 7.9219C127.055 7.9219 129.41 10.2773 129.41 13.2032L129.41 18.4844C129.41 21.4102 127.055 23.7657 124.128 23.7657L55.472 23.7657C52.5463 23.7657 50.1908 21.4102 50.1908 18.4844L50.1908 13.2032C50.1908 10.2773 52.5463 7.9219 55.472 7.9219Z"></path><path transform="matrix(1.18935 0 0 1 630 412)" fill="#F8F8F8" d="M60.7533 7.92184C57.8275 7.92184 55.472 10.2772 55.472 13.2031L55.472 18.4844C55.472 21.4102 57.8275 23.7657 60.7533 23.7657L55.472 23.7657C52.5463 23.7657 50.1908 21.4102 50.1908 18.4844L50.1908 13.2031C50.1908 10.2772 52.5463 7.92184 55.472 7.92184Z"></path><path transform="matrix(1.18935 0 0 1 630 412)" fill="#549AD4" d="M126.769 23.0635 126.769 44.9257C126.769 65.4977 110.281 81.8595 89.8003 81.8595 69.3195 81.8595 52.8314 65.4977 52.8314 44.9257L52.8314 23.0635Z"></path><path transform="matrix(1.18935 0 0 1 630 412)" fill="#3588CB" d="M52.8314 23.0643 52.8314 28.3197C53.6104 28.7715 54.5031 29.0469 55.472 29.0469L124.128 29.0469C125.098 29.0469 125.99 28.7715 126.769 28.3197L126.769 23.0643Z"></path><path transform="matrix(1.18935 0 0 1 630 412)" fill="#F8F8F8" d="M52.8314 23.0643 52.8314 44.9268C52.8314 65.4988 69.3195 81.8595 89.8003 81.8595 90.6919 81.8595 91.5653 81.7864 92.4408 81.7254 73.2071 80.3847 58.1127 64.6032 58.1127 44.9268L58.1127 23.0643Z"></path><path transform="matrix(1.18935 0 0 1 630 412)" fill="#3588CB" d="M121.488 23.0643 121.488 44.9268C121.488 64.6032 106.393 80.3847 87.1596 81.7254 88.0351 81.7863 88.9085 81.8595 89.8003 81.8595 110.281 81.8595 126.769 65.4988 126.769 44.9268L126.769 23.0643Z"></path><path transform="matrix(1.18935 0 0 1 630 412)" fill="#549AD4" d="M15.8625 79.2188 29.0657 79.2188C33.4545 79.2188 36.9876 82.7519 36.9876 87.1407L36.9876 129.391C36.9876 133.779 33.4545 137.312 29.0657 137.312L15.8625 137.312C11.4739 137.312 7.94068 133.779 7.94068 129.391L7.94068 87.1407C7.94068 82.7519 11.4739 79.2188 15.8625 79.2188Z"></path><path transform="matrix(1.18935 0 0 1 630 412)" fill="#F8F8F8" d="M21.1438 79.2189C16.7551 79.2189 13.2219 82.752 13.2219 87.1408L13.2219 129.391C13.2219 133.779 16.7551 137.312 21.1438 137.312L15.8625 137.312C11.4739 137.312 7.94069 133.779 7.94069 129.391L7.94069 87.1408C7.94069 82.752 11.4739 79.2189 15.8625 79.2189Z"></path><path transform="matrix(1.18935 0 0 1 630 412)" fill="#E4EFF8" d="M55.797 59.5173C54.7631 66.6491 52.7032 74.583 46.6269 78.0378 43.0531 80.0698 38.3349 81.2527 35.92 84.6858 36.1968 100.264 35.5104 115.869 35.9819 131.444 37.4728 133.407 39.8458 134.672 42.5319 134.672L99.8363 134.672C104.371 134.672 106.588 130.833 108.021 126.58 112.114 114.441 116.206 94.2095 116.206 90.163 116.206 85.6796 112.556 81.8595 108.021 81.8595L89.8003 81.8595C74.4965 81.8595 61.4289 72.7186 55.797 59.5173Z"></path><path transform="matrix(1.18935 0 0 1 630 412)" fill="#C4DCF0" d="M102.741 81.8595C107.276 81.8595 110.925 85.6796 110.925 90.163 110.925 94.2095 106.833 114.441 102.741 126.58 101.306 130.833 99.0904 134.672 94.5554 134.672L99.8363 134.672C104.371 134.672 106.588 130.833 108.021 126.58 112.115 114.441 116.206 94.2095 116.206 90.163 116.206 85.6796 112.556 81.8595 108.021 81.8595Z"></path><path transform="matrix(1.18935 0 0 1 630 412)" fill="#C4DCF0" d="M55.797 59.5173C54.7631 66.6491 52.7032 74.583 46.6269 78.0378 43.0531 80.0698 38.3349 81.2527 35.92 84.6858 36.1968 100.264 35.5104 115.869 35.9819 131.444 37.4728 133.407 39.8458 134.672 42.5319 134.672L42.9754 134.672C42.7617 134.418 42.5475 134.184 42.3308 133.898 42.3308 118.829 42.3158 89.7814 42.2689 87.1408 44.6838 83.7077 48.3344 82.5248 51.9082 80.4928 56.5665 77.8442 58.855 72.5607 60.1396 67.0265 58.4182 64.7165 56.9447 62.2076 55.797 59.5173Z"></path><path transform="matrix(1.13663 0.00496674 -0.00620123 0.999982 716.764 445.753)" fill="#E4EFF8" d="M17.634 0.547231 12.1289 11.8512-0.310371 13.7216 8.74756 22.4529 6.68115 34.8595 17.7809 28.9543 28.9461 34.7451 26.7572 22.363 35.7171 13.5338 23.2614 11.7941Z"></path><path transform="matrix(1.18935 0 0 1 630 412)" fill="#C4DCF0" d="M118.847 7.92184C121.773 7.92184 124.128 10.2772 124.128 13.2031L124.128 18.4844C124.128 21.4102 121.773 23.7657 118.847 23.7657L124.128 23.7657C127.055 23.7657 129.41 21.4102 129.41 18.4844L129.41 13.2031C129.41 10.2772 127.055 7.92184 124.128 7.92184Z"></path><path transform="matrix(1.18935 0 0 1 630 412)" fill="#3588CB" d="M23.7844 79.2189C28.1732 79.2189 31.7063 82.752 31.7063 87.1408L31.7063 129.391C31.7063 133.779 28.1732 137.312 23.7844 137.312L29.0657 137.312C33.4545 137.312 36.9876 133.779 36.9876 129.391L36.9876 87.1408C36.9876 82.752 33.4545 79.2189 29.0657 79.2189Z"></path><path transform="matrix(1.18935 0 0 1 630 412)" fill="#3588CB" d="M76.5971 134.672 76.5971 139.953 103.003 139.953 103.003 134.672Z"></path><path transform="matrix(1.18935 0 0 1 630 412)" fill="#3588CB" d="M97.7221 134.672 97.7221 145.235 103.003 145.235 103.003 134.672Z"></path><path transform="matrix(1.18935 0 0 1 630 412)" fill="#C4DCF0" d="M89.8003 34.39 87.1596 39.9911 89.8363 45.6643 101.735 47.4643 93.1216 56.2475 94.6328 65.4535 100.435 68.6408 98.4029 56.2475 107.016 47.4643 95.1176 45.6643Z"></path><path transform="matrix(1.18935 0 0 1 630 412)" fill="#F8F8F8" d="M89.8003 34.39 84.4828 45.6643 72.5846 47.4746 81.1924 56.2475 79.1552 68.646 84.9625 65.4535 86.4736 56.2475 77.8658 47.4746 89.7641 45.6643 92.4408 39.9911Z"></path><path transform="matrix(1.18935 0 0 1 630 412)" fill="#333333" d="M23.7657 5.28121C22.4451 5.28121 21.1251 6.16148 21.1251 7.92181L21.1251 10.5625 18.4844 10.5625C14.9627 10.5625 14.9644 15.7337 18.4844 15.8437L21.1251 15.8437 21.1251 18.4844C21.1251 22.006 26.4063 22.006 26.4063 18.4844L26.4063 15.8437 29.047 15.8437C32.5686 15.8437 32.5669 10.4525 29.047 10.5625L26.4063 10.5625 26.4063 7.92181C26.4063 6.16098 25.0863 5.28121 23.7657 5.28121ZM55.4584 5.28121C51.0431 5.28121 47.5313 8.85487 47.5313 13.1979L47.5313 18.4792C47.5313 20.7964 48.5587 22.9526 50.1719 24.4103L50.1772 44.9319C50.1785 50.2022 51.2047 55.2798 53.0552 59.8628 52.0154 66.5524 50.0792 72.9906 45.3034 75.7478 43.0408 77.0522 39.8229 78.0628 36.9071 80.0801 34.8811 77.8562 32.1294 76.5782 29.0418 76.5782L15.849 76.5782C9.97077 76.5782 5.28126 81.3347 5.28126 87.1407L5.28126 129.396C5.28126 135.284 10.043 139.958 15.849 139.958L29.0418 139.958C32.3645 139.958 35.3629 138.419 37.3041 135.998 38.8687 136.859 40.6912 137.307 42.5131 137.307L73.9376 137.312 73.9376 142.589C69.512 142.589 66.0157 146.183 66.0157 150.526L66.0157 155.808C66.0157 160.233 69.5946 163.719 73.9376 163.719L105.63 163.719C109.973 163.719 113.547 160.202 113.547 155.808L113.547 150.526C113.547 146.183 110.056 142.589 105.63 142.589L105.63 135.317C106.155 134.911 106.633 134.439 107.054 133.955 108.73 132.034 109.733 129.715 110.504 127.426 112.607 121.188 114.669 113.032 116.219 105.883 116.993 102.308 117.629 99.005 118.085 96.2954 118.542 93.5857 118.828 91.6096 118.828 90.1528 118.828 84.6795 114.715 80.026 109.467 79.3221 121.329 72.6117 129.396 59.7693 129.396 44.932L129.396 24.3948C130.995 22.9376 132.032 20.9058 132.032 18.4792L132.032 13.1979C132.032 8.85487 128.535 5.28121 124.109 5.28121ZM124.109 10.5625C125.536 10.5624 126.742 11.6894 126.745 13.1979L126.755 18.4792C126.758 19.9156 125.617 21.125 124.109 21.125L55.458 21.125C53.9495 21.125 52.8174 19.9053 52.8174 18.4792L52.8174 13.1979C52.8174 11.7719 53.9495 10.5678 55.458 10.5676ZM155.797 15.8437C154.477 15.8437 153.156 16.7239 153.156 18.4844L153.156 21.125 150.516 21.125C146.994 21.125 146.996 26.2963 150.516 26.4063L153.156 26.4063 153.156 29.0469C153.156 32.5685 158.438 32.5685 158.438 29.0469L158.438 26.4063 161.079 26.4063C164.6 26.4063 164.599 21.015 161.079 21.125L158.438 21.125 158.438 18.4844C158.438 16.7235 157.117 15.8437 155.797 15.8437ZM55.4584 26.4114 124.109 26.4114 124.109 44.9319C124.109 64.0055 108.86 79.2188 89.7866 79.2188 70.8154 79.2188 55.4584 64.093 55.4584 44.9319ZM89.8123 31.6875C88.8204 31.6772 87.9102 32.2626 87.4708 33.1935L82.7517 43.199 72.1945 44.803C70.0786 45.1258 69.232 47.8454 70.7607 49.4086L78.3988 57.1912 76.5938 68.1921C76.2351 70.3943 78.4402 72.0733 80.3329 71.0391L89.7711 65.8506 99.2144 71.0391C101.112 72.0813 103.326 70.3906 102.959 68.1819L101.159 57.1964 108.797 49.4035C110.342 47.841 109.494 45.1047 107.368 44.7875L96.8162 43.199 92.0971 33.1935C91.6675 32.2813 90.7844 31.6992 89.8123 31.6875ZM89.7814 40.4913 92.7831 46.8608C93.1584 47.6594 93.8857 48.2131 94.7274 48.341L101.442 49.357 96.5842 54.3134C95.9736 54.9357 95.6956 55.8331 95.8415 56.7116L96.9812 63.7052 90.9727 60.3992C90.2212 59.9888 89.3248 59.9908 88.5746 60.4045L82.5661 63.7156 83.7161 56.7014C83.8602 55.8268 83.5844 54.9342 82.9786 54.3135L78.1203 49.3571 84.8301 48.336C85.6705 48.2086 86.3975 47.6571 86.7745 46.8609ZM36.9689 52.8125C35.6482 52.8125 34.3282 53.6918 34.3282 55.4531L34.3282 58.0938 31.6876 58.0938C28.1659 58.0938 28.1676 63.265 31.6876 63.375L34.3282 63.375 34.3282 66.0157C34.3282 69.5374 39.6095 69.5374 39.6095 66.0157L39.6095 63.375 42.25 63.375C45.7718 63.375 45.7701 57.9838 42.25 58.0938L39.6095 58.0938 39.6095 55.4531C39.6095 53.6923 38.2895 52.8125 36.9689 52.8125ZM137.312 66.0157 137.312 68.6563 134.673 68.6563C131.151 68.6563 131.153 73.8276 134.673 73.9376L137.312 73.9376 137.312 76.5782C137.312 80.0999 142.594 80.0999 142.594 76.5782L142.594 73.9376 145.235 73.9376C148.756 73.9376 148.755 68.5463 145.235 68.6563L142.594 68.6563 142.594 66.0157C142.594 64.2548 141.274 63.375 139.953 63.375 138.633 63.375 137.312 64.2553 137.312 66.0157ZM89.7866 84.5001 108.008 84.5001C111.061 84.5001 113.547 87.1028 113.547 90.1527 113.547 90.7195 113.321 92.8172 112.882 95.4185 112.443 98.0198 111.811 101.267 111.051 104.775 109.531 111.788 107.486 119.828 105.496 125.729 104.834 127.693 104.003 129.423 103.078 130.484 102.152 131.546 101.17 132.026 99.8233 132.026L42.5131 132.026C41.3482 132.026 40.2931 131.677 39.4702 131.15 39.56 130.598 39.6095 129.972 39.6095 129.396L39.6095 87.1309C39.6095 86.3654 39.5186 85.5606 39.3618 84.841 41.597 83.0166 44.6762 82.1686 47.913 80.3282 52.8868 77.5003 55.4652 72.389 56.9179 67.1146 64.0483 77.6768 76.1071 84.5001 89.7866 84.5001ZM15.849 81.8595 29.0418 81.8595C32.0133 81.8595 34.3282 84.2311 34.3282 87.1304L34.3282 129.396C34.3282 132.294 32.0133 134.672 29.0418 134.672L15.849 134.672C12.8774 134.672 10.5677 132.295 10.5677 129.396L10.5677 87.1407C10.5677 84.2414 12.8774 81.8595 15.849 81.8595ZM18.4844 87.1407C17.0261 87.1407 15.8438 88.323 15.8438 89.7814 15.8438 91.2397 17.0261 92.422 18.4844 92.422 19.9428 92.422 21.1251 91.2397 21.1251 89.7814 21.1251 88.323 19.9428 87.1407 18.4844 87.1407ZM79.2189 137.312 100.344 137.312 100.344 142.594 79.2189 142.594ZM73.9376 147.876 105.631 147.876C107.139 147.876 108.261 149.079 108.261 150.526L108.261 155.807C108.261 157.223 107.139 158.438 105.631 158.438L73.9376 158.438C72.5116 158.438 71.3022 157.316 71.3022 155.807L71.3022 150.526C71.3022 149.017 72.491 147.876 73.9376 147.876Z"></path></g></svg>